<svg width="1568" height="333" viewBox="0 0 1568 333" fill="none" xmlns="http://www.w3.org/2000/svg">
<path d="M633.913 -118.862C648.429 7.8134 1035.96 -36.269 1165.85 -127.814C1326.17 -240.749 1074.84 -442.403 1106.85 -533.934C1121.06 -574.573 912.461 -466.826 712.455 -427.402C510.741 -387.643 370.208 -387.594 454.797 -349.907C509.969 -325.353 615.771 -278.051 633.913 -118.862Z" stroke="white" stroke-opacity="0.05" stroke-width="5" stroke-miterlimit="10"/>
<path d="M626.713 -101.821C637.786 33.9245 1052.88 -15.7399 1189.98 -114.084C1359.99 -235.968 1082.69 -444.86 1122.26 -544.959C1139.49 -588.64 912.983 -484.479 698.801 -439.732C483.567 -394.764 328.662 -383.143 426.716 -342.577C491.277 -315.858 612.761 -273.085 626.713 -101.821Z" stroke="white" stroke-opacity="0.05" stroke-width="5" stroke-miterlimit="10"/>
<path d="M619.493 -84.7763C627.216 60.0887 1069.77 4.6995 1214.08 -100.35C1393.77 -231.15 1090.48 -447.243 1137.59 -555.973C1157.88 -602.717 913.507 -502.116 685.065 -452.034C456.331 -401.875 287.07 -378.718 398.551 -335.235C472.584 -306.379 609.731 -268.116 619.493 -84.7763Z" stroke="white" stroke-opacity="0.05" stroke-width="5" stroke-miterlimit="10"/>
<path d="M612.318 -67.7428C616.693 86.2572 1086.77 25.1649 1238.19 -86.6213C1427.57 -226.339 1098.25 -449.755 1153.05 -567.025C1176.34 -616.873 913.986 -519.783 671.457 -464.375C428.928 -408.966 245.629 -374.319 370.452 -327.907C453.939 -296.895 606.766 -263.161 612.318 -67.7428Z" stroke="white" stroke-opacity="0.05" stroke-width="5" stroke-miterlimit="10"/>
<path d="M605.117 -50.6995C606.166 112.432 1103.57 45.6653 1262.32 -72.8735C1461.45 -221.535 1106.06 -452.332 1168.46 -578.033C1194.78 -631.02 914.485 -537.431 657.804 -476.687C402.027 -416.142 204.181 -369.929 342.415 -320.567C435.31 -287.408 603.776 -258.197 605.117 -50.6995Z" stroke="white" stroke-opacity="0.05" stroke-width="5" stroke-miterlimit="10"/>
<path d="M597.918 -33.6563C595.641 138.608 1120.19 65.9387 1286.45 -59.1882C1494.8 -217.016 1113.66 -454.971 1183.84 -589.101C1213.21 -645.229 914.976 -555.142 644.146 -489.047C374.845 -423.323 162.706 -365.582 314.306 -313.279C416.682 -277.921 600.834 -253.208 597.918 -33.6563Z" stroke="white" stroke-opacity="0.05" stroke-width="5" stroke-miterlimit="10"/>
<path d="M590.727 -16.6163C585.125 164.779 1137.1 86.4387 1310.53 -45.4031C1528.66 -212.131 1121.21 -457.51 1199.21 -600.072C1231.59 -659.369 915.426 -572.752 630.405 -501.3C347.556 -430.41 121.19 -361.136 286.114 -305.885C398.042 -268.434 597.857 -248.231 590.727 -16.6163Z" stroke="white" stroke-opacity="0.05" stroke-width="5" stroke-miterlimit="10"/>
<path d="M583.534 0.421015C574.638 191.023 1154.04 106.945 1334.69 -31.68C1562.34 -207.27 1129.02 -460.172 1214.65 -611.105C1250.09 -673.641 915.853 -590.792 616.823 -513.629C320.331 -437.925 79.8345 -356.765 258.124 -298.573C379.442 -258.956 594.922 -243.248 583.534 0.421015Z" stroke="white" stroke-opacity="0.05" stroke-width="5" stroke-miterlimit="10"/>
<path d="M576.338 17.4615C564.604 217.123 1170.99 127.455 1358.82 -17.9509C1596.3 -202.446 1136.7 -462.841 1230.06 -622.146C1268.53 -687.789 916.367 -608.38 603.174 -525.959C293.169 -444.999 38.4342 -352.383 230.029 -291.225C360.84 -249.474 592.587 -238.287 576.338 17.4615Z" stroke="white" stroke-opacity="0.05" stroke-width="5" stroke-miterlimit="10"/>
<path d="M569.141 34.5011C553.974 243.31 1187.88 147.939 1382.93 -4.21912C1630.11 -197.586 1144.33 -465.521 1245.45 -633.171C1286.96 -702.002 916.811 -625.975 589.503 -538.272C265.984 -452.072 -3.01301 -348.013 201.929 -283.894C342.327 -239.96 589.496 -233.295 569.141 34.5011Z" stroke="white" stroke-opacity="0.05" stroke-width="5" stroke-miterlimit="10"/>
<path d="M561.944 51.5436C543.367 269.497 1204.82 168.466 1407.04 9.51552C1663.87 -192.732 1152.01 -468.236 1260.85 -644.193C1305.42 -716.231 917.373 -643.665 575.918 -550.596C238.896 -459.077 -44.5471 -343.356 173.893 -276.57C323.489 -230.299 586.407 -228.3 561.944 51.5436Z" stroke="white" stroke-opacity="0.05" stroke-width="5" stroke-miterlimit="10"/>
<path d="M554.737 68.5893C532.684 295.697 1221.78 189.025 1431.16 23.2501C1697.75 -187.895 1159.67 -470.947 1276.17 -655.202C1323.79 -730.463 917.799 -661.174 562.108 -562.9C211.625 -466.212 -85.9164 -339.12 145.72 -269.224C304.967 -220.922 583.408 -223.349 554.737 68.5893Z" stroke="white" stroke-opacity="0.05" stroke-width="5" stroke-miterlimit="10"/>
<path d="M117.639 -261.883C286.43 -211.55 580.235 -218.3 547.556 85.6231C522.138 321.885 1238.67 209.491 1455.29 36.9915C1731.6 -183.059 1167.33 -473.667 1291.64 -666.241C1392.19 -821.973 -375.995 -409.068 117.639 -261.883Z" stroke="white" stroke-opacity="0.05" stroke-width="5" stroke-miterlimit="10"/>
</svg>
