<svg width="54" height="52" viewBox="0 0 54 52" fill="none" xmlns="http://www.w3.org/2000/svg">
<rect width="54" height="51.7206" rx="12" fill="#4F9FE7"/>
<path d="M38.0926 19.2526C38.7603 19.2526 39.3492 18.7028 39.3492 17.9959V14.7757C39.3492 14.108 38.7995 13.519 38.0926 13.519L15.866 13.5192C15.1984 13.5585 14.6094 14.1083 14.6094 14.7757V18.0352C14.6094 18.7028 15.1592 19.2918 15.866 19.2918H16.5337V21.1767H15.866C15.1984 21.1767 14.6094 21.7265 14.6094 22.4334V25.6929C14.6094 26.3605 15.1592 26.9495 15.866 26.9495H16.5337V28.8345L15.866 28.8343C15.1984 28.8343 14.6486 29.3841 14.6486 30.0517V33.3112C14.6486 33.9789 15.1984 34.5287 15.866 34.5287L25.4085 34.5285C25.2514 33.9787 25.1729 33.3897 25.1729 32.8007C25.1729 31.2692 25.7227 29.8947 26.6652 28.7951H17.3189V26.9101H29.4925C30.6706 26.5567 31.9665 26.5567 33.1447 26.9101H36.6789V28.7951H35.972C36.9145 29.8554 37.4643 31.269 37.4643 32.8007C37.4643 33.3897 37.3858 33.9787 37.2287 34.5285H38.132C38.7996 34.5285 39.3494 33.9787 39.3494 33.311V30.0515C39.3494 29.3839 38.7996 28.8341 38.132 28.8341H37.4643V26.9492H38.132C38.7996 26.9492 39.3886 26.3994 39.3886 25.6925V22.433C39.3886 21.7654 38.8388 21.1764 38.132 21.1764H37.4643V19.2915L38.0925 19.2918L38.0926 19.2526ZM22.9342 15.6004C22.9342 15.3649 23.0914 15.2078 23.3269 15.2078C23.5625 15.2078 23.7196 15.3649 23.7196 15.6004V17.2106C23.7196 17.4461 23.5625 17.6032 23.3269 17.6032C23.0914 17.6032 22.9342 17.4461 22.9342 17.2106V15.6004ZM36.6393 19.2526V21.1375H17.3188V19.2526H36.6393ZM20.0675 15.6004C20.0675 15.3649 20.2246 15.2078 20.4602 15.2078C20.6958 15.2078 20.8529 15.3649 20.8529 15.6004V17.2106C20.8529 17.4461 20.6958 17.6032 20.4602 17.6032C20.2246 17.6032 20.0675 17.4461 20.0675 17.2106V15.6004ZM17.1615 15.6004C17.1615 15.3649 17.3186 15.2078 17.5542 15.2078C17.7898 15.2078 17.9469 15.3649 17.9469 15.6004V17.2106C17.9469 17.4461 17.7898 17.6032 17.5542 17.6032C17.3186 17.6032 17.1615 17.4461 17.1615 17.2106V15.6004ZM22.9343 30.837C22.9343 30.6014 23.0914 30.4443 23.327 30.4443C23.5625 30.4443 23.7196 30.6014 23.7196 30.837V32.4471C23.7196 32.6827 23.5625 32.8398 23.327 32.8398C23.0914 32.8398 22.9343 32.6827 22.9343 32.4471V30.837ZM20.0677 30.837C20.0677 30.6014 20.2248 30.4443 20.4603 30.4443C20.6959 30.4443 20.853 30.6014 20.853 30.837V32.4471C20.853 32.6827 20.6959 32.8398 20.4603 32.8398C20.2248 32.8398 20.0677 32.6827 20.0677 32.4471V30.837ZM17.5543 30.4443C17.7899 30.4443 17.947 30.6014 17.947 30.837V32.4471C17.947 32.6827 17.7899 32.8398 17.5543 32.8398C17.3187 32.8398 17.1616 32.6827 17.1616 32.4471V30.837C17.1616 30.6014 17.358 30.4443 17.5543 30.4443ZM17.947 24.7896C17.947 25.0251 17.7899 25.1822 17.5543 25.1822C17.3187 25.1822 17.1616 25.0251 17.1616 24.7896V23.1795C17.1616 22.9439 17.3187 22.7868 17.5543 22.7868C17.7899 22.7868 17.947 22.9439 17.947 23.1795V24.7896ZM20.853 24.7896C20.853 25.0251 20.6959 25.1822 20.4603 25.1822C20.2248 25.1822 20.0676 25.0251 20.0676 24.7896V23.1795C20.0676 22.9439 20.2248 22.7868 20.4603 22.7868C20.6959 22.7868 20.853 22.9439 20.853 23.1795V24.7896ZM23.7196 24.7896C23.7196 25.0251 23.5625 25.1822 23.327 25.1822C23.0914 25.1822 22.9343 25.0251 22.9343 24.7896V23.1795C22.9343 22.9439 23.0914 22.7868 23.327 22.7868C23.5625 22.7868 23.7196 22.9439 23.7196 23.1795V24.7896ZM36.3644 24.3969H26.2328C25.9972 24.3969 25.8401 24.2398 25.8401 24.0042C25.8401 23.7686 25.9972 23.6115 26.2328 23.6115H36.4037C36.6393 23.6115 36.7964 23.7686 36.7964 24.0042C36.7572 24.2006 36.6001 24.3969 36.3645 24.3969H36.3644ZM36.3644 16.7784H26.2328C25.9972 16.7784 25.8401 16.6213 25.8401 16.3857C25.8401 16.1501 25.9972 15.993 26.2328 15.993H36.4037C36.6393 15.993 36.7964 16.1501 36.7964 16.3857C36.7572 16.6213 36.6001 16.7784 36.3645 16.7784H36.3644Z" fill="white"/>
<path d="M32.3587 30.8765C32.3587 31.4621 31.884 31.9369 31.2984 31.9369C30.7129 31.9369 30.2383 31.4621 30.2383 30.8765C30.2383 30.291 30.7129 29.8164 31.2984 29.8164C31.884 29.8164 32.3587 30.291 32.3587 30.8765Z" fill="#D2E8FD"/>
<path d="M31.2986 32.7222C30.3169 32.7222 29.4922 33.5467 29.4922 34.5286V35.0391H33.1051V34.5286C33.1051 33.5077 32.2805 32.7222 31.2986 32.7222Z" fill="#D2E8FD"/>
<path d="M31.2985 27.3818C28.3532 27.3818 25.958 29.7773 25.958 32.7223C25.958 35.6674 28.3535 38.1022 31.2985 38.1022C34.2435 38.1022 36.6784 35.7067 36.6784 32.7223C36.6784 29.738 34.2437 27.3818 31.2985 27.3818ZM33.8903 35.4322C33.8903 35.6677 33.7332 35.8248 33.4976 35.8248H29.0994C28.8638 35.8248 28.7067 35.6677 28.7067 35.4322C28.7852 35.0787 28.2748 33.1938 30.0811 32.2513C29.7276 31.8979 29.4528 31.4268 29.4528 30.877C29.4528 29.8559 30.2774 29.0313 31.2985 29.0313C32.3196 29.0313 33.1442 29.8559 33.1442 30.877C33.1442 31.4268 32.9086 31.8981 32.516 32.2513C33.3405 32.6832 33.8903 33.5472 33.8903 34.5289L33.8903 35.4322Z" fill="#D2E8FD"/>
</svg>
