<svg width="54" height="52" viewBox="0 0 54 52" fill="none" xmlns="http://www.w3.org/2000/svg">
<rect y="0.139648" width="54" height="51.7206" rx="12" fill="#89D626"/>
<path d="M35.6795 16.5947H22.4474C20.4979 16.5947 18.844 17.9238 18.3124 19.7255C16.5107 20.2276 15.1816 21.8816 15.1816 23.8604V31.1559C15.1816 33.5188 17.1014 35.4385 19.4643 35.4385H32.6965C34.6459 35.4385 36.2999 34.1095 36.8314 32.3078C38.6331 31.8057 39.9622 30.1517 39.9622 28.1728L39.9624 20.8774C39.9624 18.5145 38.0425 16.5947 35.6797 16.5947H35.6795ZM38.4854 28.1433C38.4854 29.2066 37.8947 30.1517 37.0086 30.6243V23.831C37.0086 21.4681 35.0889 19.5483 32.7259 19.5483L19.9663 19.5485C20.439 18.6624 21.384 18.0717 22.4473 18.0717H35.6795C37.2154 18.0717 38.4854 19.3417 38.4854 20.8776L38.4854 28.1433ZM24.4853 32.3671C24.3967 32.3671 24.3081 32.3376 24.2195 32.308C21.6203 31.3333 20.2912 28.4388 21.2659 25.8691C21.7385 24.5992 22.6541 23.6244 23.8651 23.0632C25.0762 22.502 26.4347 22.4429 27.7049 22.9155C29.0931 23.4176 30.1859 24.54 30.688 25.9282H31.7808L29.9791 29.1476L28.1182 25.9872H29.0929C28.6794 25.2488 28.0296 24.6581 27.2026 24.3626C26.3165 24.0377 25.3418 24.0672 24.4853 24.4512C23.6288 24.8353 22.979 25.544 22.6541 26.4301C21.9748 28.2613 22.9199 30.2993 24.7513 30.9786C25.1353 31.1263 25.3419 31.5398 25.1942 31.9238C25.0465 32.1602 24.7807 32.367 24.4853 32.367L24.4853 32.3671Z" fill="white"/>
</svg>
