<svg width="54" height="52" viewBox="0 0 54 52" fill="none" xmlns="http://www.w3.org/2000/svg">
<rect y="0.139648" width="54" height="51.7206" rx="12" fill="#BF83FF"/>
<path d="M37.3926 13.8066H17.517C16.02 13.8066 14.8066 15.0209 14.8066 16.517V36.3926C14.8066 37.8887 16.02 39.1029 17.517 39.1029H37.3926C38.8895 39.1029 40.1029 37.8887 40.1029 36.3926V16.517C40.1029 15.0209 38.8895 13.8066 37.3926 13.8066ZM35.4149 22.5266L25.6407 32.2992C25.3868 32.5531 25.0418 32.6959 24.6822 32.6959H24.6804C24.3217 32.6959 23.9766 32.5523 23.722 32.2974L19.4921 28.0521C18.9636 27.5217 18.9654 26.6645 19.4957 26.1359C20.0261 25.6074 20.8834 25.6092 21.4119 26.1395L24.6832 29.4236L33.4972 20.6112C34.0265 20.0818 34.884 20.0818 35.4133 20.6112C35.9427 21.1408 35.9435 21.9972 35.4149 22.5266L35.4149 22.5266Z" fill="white"/>
</svg>
