<svg width="54" height="52" viewBox="0 0 54 52" fill="none" xmlns="http://www.w3.org/2000/svg">
<rect width="54" height="51.7206" rx="12" fill="#F98060"/>
<path d="M27.456 13.8066C20.4692 13.8066 14.8066 19.4692 14.8066 26.4544C14.8066 33.4395 20.4692 39.1037 27.456 39.1037C34.4399 39.1037 40.1029 33.4396 40.1029 26.4544C40.1029 19.4695 34.4403 13.8066 27.456 13.8066ZM28.4051 32.9243V35.0794H26.3353V33.0721C24.9204 33.008 23.5438 32.6275 22.7425 32.1613L23.3748 29.6907C24.2627 30.1737 25.5114 30.6183 26.8851 30.6183C28.0898 30.6183 28.9136 30.1537 28.9136 29.3083C28.9136 28.5057 28.236 27.9971 26.6749 27.4684C24.4133 26.7071 22.8677 25.6514 22.8677 23.6013C22.8677 21.7402 24.1806 20.2812 26.4421 19.8379L26.4415 17.83H28.5141V19.6895C29.929 19.7536 30.8781 20.0488 31.577 20.3884L30.9634 22.7779C30.4135 22.5448 29.4431 22.0577 27.9188 22.0577C26.5451 22.0577 26.1018 22.6501 26.1018 23.2424C26.1018 23.9401 26.8419 24.3846 28.6377 25.0607C31.1536 25.9486 32.1693 27.1108 32.1693 29.0144C32.1696 30.8955 30.8355 32.5009 28.4049 32.9243L28.4051 32.9243Z" fill="white"/>
</svg>
