<svg width="1568" height="526" viewBox="0 0 1568 526" fill="none" xmlns="http://www.w3.org/2000/svg">
<path d="M698.675 88.7926C745.065 132.897 883.189 139.839 948.773 109.591C1021.19 76.1776 989.084 -60.572 968.256 -73.7117C947.429 -86.8514 907.681 51.8299 835.373 44.4759C755.112 36.3015 740.294 -62.526 707.674 -54.9191C675.578 -47.4378 645.057 37.8108 698.675 88.7926Z" stroke="white" stroke-opacity="0.04" stroke-width="5" stroke-miterlimit="10"/>
<path d="M691.475 105.831C734.136 159.271 900.258 160.487 972.902 123.318C1055.18 81.201 1000.68 -64.4479 983.647 -84.7374C968.982 -102.23 908.128 34.5507 821.719 32.1426C727.842 29.542 699.717 -57.3958 679.487 -47.577C657.803 -37.0328 641.511 43.1076 691.475 105.831Z" stroke="white" stroke-opacity="0.04" stroke-width="5" stroke-miterlimit="10"/>
<path d="M684.286 122.872C723.097 185.569 917.287 181.096 996.999 137.054C1089.2 86.1581 1012.17 -67.079 999.048 -95.7607C989.439 -116.598 908.655 17.1524 808.015 19.8369C700.676 22.6915 657.643 -54.0902 651.438 -40.2513C638.518 -28.6892 638.002 48.1485 684.286 122.872Z" stroke="white" stroke-opacity="0.04" stroke-width="5" stroke-miterlimit="10"/>
<path d="M677.02 139.921C712.187 211.797 934.232 201.667 1021.05 150.745C1122.97 91.04 1038.67 -74.1268 1014.39 -106.826C999.169 -127.306 909.13 -0.352989 794.332 7.47688C673.521 15.7088 616.293 -49.9096 623.305 -32.964C619.979 -19.3149 634.631 53.1816 677.02 139.921Z" stroke="white" stroke-opacity="0.04" stroke-width="5" stroke-miterlimit="10"/>
<path d="M669.884 156.955C701.465 237.971 951.261 222.199 1045.25 164.516C1156.96 95.9729 1051.64 -75.0204 1029.85 -117.808C1017.6 -141.816 909.764 -17.8289 780.749 -4.81312C646.467 8.8117 580.142 -48.1201 595.274 -25.5913C604.949 -11.1575 631.363 58.1726 669.884 156.955Z" stroke="white" stroke-opacity="0.04" stroke-width="5" stroke-miterlimit="10"/>
<path d="M662.678 173.98C690.782 264.134 968.24 242.718 1069.36 178.248C1190.83 100.824 1041.84 -72.8151 1045.34 -128.863C1047.11 -157.9 910.398 -35.421 767.155 -17.1538C619.415 1.65527 537.725 -44.2416 567.273 -18.2756C585.559 -2.10136 628.153 63.1344 662.678 173.98Z" stroke="white" stroke-opacity="0.04" stroke-width="5" stroke-miterlimit="10"/>
<path d="M655.491 191.013C680.116 290.29 985.107 263.233 1093.48 191.989C1224.66 105.659 1050.48 -74.7909 1060.64 -139.863C1065.62 -171.7 910.883 -52.9795 753.412 -29.4456C592.144 -5.34617 495.465 -39.882 539.081 -10.9202C566.447 7.24266 624.982 68.0858 655.491 191.013Z" stroke="white" stroke-opacity="0.04" stroke-width="5" stroke-miterlimit="10"/>
<path d="M648.289 208.059C669.498 316.449 1002.1 283.692 1117.61 205.724C1258.51 110.534 1058.78 -76.881 1076.05 -150.884C1084.13 -185.586 911.386 -70.5784 739.755 -41.7714C565.036 -12.441 453.567 -35.4389 510.997 -3.58645C547.505 16.6831 621.884 73.0685 648.289 208.059Z" stroke="white" stroke-opacity="0.04" stroke-width="5" stroke-miterlimit="10"/>
<path d="M641.086 225.103C658.901 342.603 1019.04 304.236 1141.73 219.456C1292.36 115.377 1066.93 -79.0941 1091.48 -161.911C1102.64 -199.552 911.952 -88.2041 726.123 -54.0868C537.907 -19.5347 411.865 -30.9949 482.913 3.74538C528.701 26.1649 618.801 77.9994 641.086 225.103Z" stroke="white" stroke-opacity="0.04" stroke-width="5" stroke-miterlimit="10"/>
<path d="M633.913 242.138C648.429 368.813 1035.96 324.731 1165.85 233.186C1326.17 120.251 1074.84 -81.4026 1106.85 -172.934C1121.06 -213.573 912.461 -105.826 712.455 -66.4015C510.741 -26.6432 370.208 -26.5941 454.797 11.0934C509.969 35.6471 615.771 82.9494 633.913 242.138Z" stroke="white" stroke-opacity="0.04" stroke-width="5" stroke-miterlimit="10"/>
<path d="M626.713 259.179C637.786 394.924 1052.88 345.26 1189.98 246.916C1359.99 125.032 1082.69 -83.8603 1122.26 -183.959C1139.49 -227.64 912.983 -123.479 698.801 -78.7316C483.567 -33.764 328.662 -22.1435 426.716 18.4228C491.277 45.1419 612.761 87.915 626.713 259.179Z" stroke="white" stroke-opacity="0.04" stroke-width="5" stroke-miterlimit="10"/>
<path d="M619.493 276.223C627.216 421.088 1069.77 365.699 1214.08 260.649C1393.77 129.85 1090.48 -86.2435 1137.59 -194.973C1157.88 -241.717 913.507 -141.117 685.065 -91.034C456.331 -40.8758 287.07 -17.7181 398.551 25.7645C472.584 54.6207 609.731 92.8835 619.493 276.223Z" stroke="white" stroke-opacity="0.04" stroke-width="5" stroke-miterlimit="10"/>
<path d="M612.318 293.258C616.693 447.258 1086.77 386.165 1238.19 274.379C1427.57 134.661 1098.25 -88.7544 1153.05 -206.024C1176.34 -255.873 913.986 -158.783 671.457 -103.374C428.928 -47.9656 245.629 -13.3181 370.452 33.0934C453.939 64.1054 606.766 97.8392 612.318 293.258Z" stroke="white" stroke-opacity="0.04" stroke-width="5" stroke-miterlimit="10"/>
<path d="M605.117 310.3C606.166 473.432 1103.57 406.665 1262.32 288.126C1461.45 139.465 1106.06 -91.332 1168.46 -217.033C1194.78 -270.02 914.485 -176.431 657.804 -115.687C402.027 -55.1417 204.181 -8.92876 342.415 40.4334C435.31 73.592 603.776 102.803 605.117 310.3Z" stroke="white" stroke-opacity="0.04" stroke-width="5" stroke-miterlimit="10"/>
<path d="M597.918 327.344C595.641 499.608 1120.19 426.939 1286.45 301.812C1494.8 143.984 1113.66 -93.9711 1183.84 -228.101C1213.21 -284.229 914.976 -194.142 644.146 -128.047C374.845 -62.323 162.706 -4.58235 314.306 47.7211C416.682 83.0791 600.834 107.792 597.918 327.344Z" stroke="white" stroke-opacity="0.04" stroke-width="5" stroke-miterlimit="10"/>
<path d="M590.727 344.384C585.125 525.779 1137.1 447.439 1310.53 315.597C1528.66 148.869 1121.21 -96.5102 1199.21 -239.072C1231.59 -298.369 915.426 -211.752 630.405 -140.3C347.556 -69.4105 121.19 -0.136092 286.114 55.115C398.042 92.5663 597.857 112.769 590.727 344.384Z" stroke="white" stroke-opacity="0.04" stroke-width="5" stroke-miterlimit="10"/>
<path d="M583.534 361.422C574.638 552.024 1154.04 467.946 1334.69 329.32C1562.34 153.731 1129.02 -99.171 1214.65 -250.105C1250.09 -312.641 915.853 -229.792 616.823 -152.628C320.331 -76.9244 79.8345 4.23531 258.124 62.4278C379.442 102.045 594.922 117.752 583.534 361.422Z" stroke="white" stroke-opacity="0.04" stroke-width="5" stroke-miterlimit="10"/>
<path d="M576.338 378.461C564.604 578.122 1170.99 488.454 1358.82 343.049C1596.3 158.553 1136.7 -101.841 1230.06 -261.147C1268.53 -326.79 916.367 -247.38 603.174 -164.959C293.169 -83.9994 38.4342 8.61618 230.029 69.7748C360.84 111.525 592.587 122.712 576.338 378.461Z" stroke="white" stroke-opacity="0.04" stroke-width="5" stroke-miterlimit="10"/>
<path d="M569.141 395.501C553.974 604.31 1187.88 508.938 1382.93 356.78C1630.11 163.413 1144.33 -104.521 1245.45 -272.172C1286.96 -341.003 916.811 -264.976 589.503 -177.273C265.984 -91.0725 -3.01301 12.9866 201.929 77.1053C342.327 121.04 589.496 127.704 569.141 395.501Z" stroke="white" stroke-opacity="0.04" stroke-width="5" stroke-miterlimit="10"/>
<path d="M561.944 412.543C543.367 630.497 1204.82 529.466 1407.04 370.515C1663.87 168.267 1152.01 -107.236 1260.85 -283.193C1305.42 -355.232 917.373 -282.665 575.918 -189.596C238.896 -98.0774 -44.5471 17.6436 173.893 84.4294C323.489 130.701 586.407 132.699 561.944 412.543Z" stroke="white" stroke-opacity="0.04" stroke-width="5" stroke-miterlimit="10"/>
<path d="M554.737 429.59C532.684 656.698 1221.78 550.025 1431.16 384.251C1697.75 173.106 1159.67 -109.947 1276.17 -294.202C1323.79 -369.462 917.799 -300.173 562.108 -201.899C211.625 -105.212 -85.9164 21.8808 145.72 91.7765C304.967 140.079 583.408 137.651 554.737 429.59Z" stroke="white" stroke-opacity="0.04" stroke-width="5" stroke-miterlimit="10"/>
<path d="M117.639 99.117C286.43 149.45 580.235 142.7 547.556 446.623C522.138 682.885 1238.67 570.491 1455.29 397.992C1731.6 177.941 1167.33 -112.667 1291.64 -305.241C1392.19 -460.973 -375.995 -48.0684 117.639 99.117Z" stroke="white" stroke-opacity="0.04" stroke-width="5" stroke-miterlimit="10"/>
</svg>
