<svg width="1672" height="1460" viewBox="0 0 1672 1460" fill="none" xmlns="http://www.w3.org/2000/svg">
<path d="M728.204 644.298C790.941 657.003 911.633 589.476 951.112 528.999C994.702 462.205 894.824 363.433 870.198 363.371C845.572 363.31 885.606 501.909 820.447 534.108C748.115 569.839 683.04 493.999 659.451 517.779C636.239 541.174 655.691 629.607 728.204 644.298Z" stroke="white" stroke-opacity="0.04" stroke-width="5" stroke-miterlimit="10"/>
<path d="M731.162 662.557C795.7 685.153 937.065 597.896 978.847 527.804C1026.16 448.401 902.587 353.988 877.376 345.853C855.658 338.829 876.802 487.035 802.327 530.918C721.422 578.607 651.395 519.91 639.477 538.979C626.712 559.435 655.503 635.98 731.162 662.557Z" stroke="white" stroke-opacity="0.04" stroke-width="5" stroke-miterlimit="10"/>
<path d="M734.128 680.813C800.325 713.296 962.443 606.304 1006.56 526.633C1057.62 434.516 910.92 345.653 884.564 328.33C865.35 315.785 868.002 472.017 784.178 527.777C694.77 587.241 617.511 545.071 619.61 560.091C614.81 576.752 655.209 642.114 734.128 680.813Z" stroke="white" stroke-opacity="0.04" stroke-width="5" stroke-miterlimit="10"/>
<path d="M737.033 699.116C805.022 741.312 987.729 614.723 1034.21 525.445C1088.81 420.707 929.621 325.599 891.675 310.805C867.901 301.544 859.1 456.935 766.018 524.578C668.055 595.758 584.705 570.588 599.651 581.215C604.087 594.545 655.027 648.169 737.033 699.116Z" stroke="white" stroke-opacity="0.04" stroke-width="5" stroke-miterlimit="10"/>
<path d="M740.042 717.339C809.85 769.182 1013.07 623.066 1062.03 524.249C1120.23 406.821 940.135 317.949 898.936 293.285C875.8 279.459 850.35 441.796 747.981 521.387C641.473 604.294 555.033 591.317 579.824 602.359C595.691 609.443 654.913 654.134 740.042 717.339Z" stroke="white" stroke-opacity="0.04" stroke-width="5" stroke-miterlimit="10"/>
<path d="M742.986 735.59C814.706 797.022 1038.35 631.423 1089.75 523.072C1151.49 392.932 933.004 325.027 906.183 275.689C892.253 250.149 841.538 426.557 729.907 518.159C614.755 612.609 521.165 617.145 559.994 623.437C584.08 627.42 654.831 660.043 742.986 735.59Z" stroke="white" stroke-opacity="0.04" stroke-width="5" stroke-miterlimit="10"/>
<path d="M745.951 753.838C819.572 824.847 1063.55 639.837 1117.48 521.891C1182.73 379.044 939.272 318.762 913.297 258.24C900.595 228.625 832.617 411.426 711.734 515.05C587.933 621.172 487.684 643.298 540.022 644.651C572.857 645.492 654.776 665.923 745.951 753.838Z" stroke="white" stroke-opacity="0.04" stroke-width="5" stroke-miterlimit="10"/>
<path d="M748.909 772.105C824.479 852.649 1088.81 648.136 1145.22 520.703C1213.99 365.185 945.191 312.58 920.491 240.714C908.901 207.021 823.69 396.25 693.614 511.867C561.2 629.568 454.554 669.328 520.13 665.789C561.828 663.556 654.8 671.79 748.909 772.105Z" stroke="white" stroke-opacity="0.04" stroke-width="5" stroke-miterlimit="10"/>
<path d="M751.866 790.37C829.403 880.435 1114.08 656.535 1172.96 519.513C1245.23 351.3 950.922 306.372 927.703 223.173C917.156 185.354 814.803 381.019 675.521 508.68C534.45 637.977 421.591 695.255 500.238 686.924C550.939 681.581 654.809 677.605 751.866 790.37Z" stroke="white" stroke-opacity="0.04" stroke-width="5" stroke-miterlimit="10"/>
<path d="M754.842 808.613C834.462 908.203 1139.31 664.904 1200.68 518.329C1276.46 337.458 956.392 300.214 934.867 205.665C925.307 163.688 805.868 365.821 657.398 505.512C507.659 646.394 388.642 721.122 480.325 708.091C540.11 699.569 654.873 683.408 754.842 808.613Z" stroke="white" stroke-opacity="0.04" stroke-width="5" stroke-miterlimit="10"/>
<path d="M757.8 826.874C839.323 935.977 1164.55 673.302 1228.41 517.136C1307.65 323.535 961.744 293.956 942.063 188.134C933.443 141.977 796.928 350.59 639.279 502.324C480.857 654.803 355.815 746.972 460.434 729.224C529.323 717.545 654.962 689.214 757.8 826.874Z" stroke="white" stroke-opacity="0.04" stroke-width="5" stroke-miterlimit="10"/>
<path d="M760.743 845.15C844.275 963.758 1189.72 681.641 1256.14 515.957C1338.83 309.665 967.071 287.801 949.194 170.659C941.536 120.281 787.999 335.371 621.106 499.203C454.007 663.254 322.935 772.826 440.478 750.412C518.527 735.51 655.036 695.034 760.743 845.15Z" stroke="white" stroke-opacity="0.04" stroke-width="5" stroke-miterlimit="10"/>
<path d="M763.717 863.392C849.269 991.518 1214.99 689.943 1283.85 514.773C1370.02 295.776 972.315 281.545 956.411 153.084C949.652 98.4775 779.015 320.152 603.02 495.982C427.025 671.812 290.168 798.577 420.57 771.553C507.772 753.453 655.158 700.807 763.717 863.392Z" stroke="white" stroke-opacity="0.04" stroke-width="5" stroke-miterlimit="10"/>
<path d="M766.676 881.656C854.263 1019.28 1240.12 698.376 1311.6 513.593C1401.27 281.837 977.569 275.207 963.617 135.567C957.753 76.6943 770.059 304.937 584.912 492.807C400.425 680.029 257.392 824.323 400.722 792.671C497.034 771.389 655.264 706.601 766.676 881.656Z" stroke="white" stroke-opacity="0.04" stroke-width="5" stroke-miterlimit="10"/>
<path d="M769.635 899.919C859.258 1047.05 1264.98 706.715 1339.31 512.366C1431.92 267.944 982.598 268.936 970.767 118.016C965.813 54.8626 761.062 289.674 566.773 489.596C373.582 688.392 224.569 850.047 380.784 813.783C486.297 789.326 655.423 712.39 769.635 899.919Z" stroke="white" stroke-opacity="0.04" stroke-width="5" stroke-miterlimit="10"/>
<path d="M772.6 918.175C864.258 1074.81 1290.19 715.098 1367.03 511.245C1463.2 254.086 987.646 262.772 977.951 100.558C973.872 33.1146 752.084 274.518 548.621 486.52C346.699 696.892 191.765 875.878 360.833 835.03C475.549 807.269 655.546 718.189 772.6 918.175Z" stroke="white" stroke-opacity="0.04" stroke-width="5" stroke-miterlimit="10"/>
<path d="M775.562 936.43C869.323 1102.61 1315.44 723.463 1394.79 510.031C1494.32 240.302 992.851 256.364 985.166 83.0054C981.953 11.1964 742.858 259.008 530.564 483.294C319.644 704.995 159.056 901.559 341.01 856.099C464.831 825.182 655.708 723.97 775.562 936.43Z" stroke="white" stroke-opacity="0.04" stroke-width="5" stroke-miterlimit="10"/>
<path d="M778.522 954.689C874.694 1130.05 1340.7 731.831 1422.53 508.835C1525.64 226.341 997.937 250.022 992.354 65.4609C990.056 -10.5903 733.946 243.838 512.448 480.104C292.875 713.439 126.315 927.273 321.115 877.255C454.111 843.101 656.366 729.412 778.522 954.689Z" stroke="white" stroke-opacity="0.04" stroke-width="5" stroke-miterlimit="10"/>
<path d="M781.481 972.948C879.607 1157.89 1365.89 740.205 1450.25 507.654C1556.86 212.49 1002.98 243.696 999.534 47.9418C998.116 -32.4255 724.971 228.696 494.324 476.939C266.088 721.895 93.5283 953.003 301.207 898.399C443.486 860.999 656.401 735.284 781.481 972.948Z" stroke="white" stroke-opacity="0.04" stroke-width="5" stroke-miterlimit="10"/>
<path d="M784.442 991.209C884.539 1185.71 1391.16 748.588 1477.97 506.474C1588.05 198.657 1008.03 237.318 1006.72 30.4237C1006.18 -54.2855 716.046 213.413 476.267 473.72C239.419 730.357 60.8206 979.021 281.352 919.502C432.664 879.193 656.439 741.156 784.442 991.209Z" stroke="white" stroke-opacity="0.04" stroke-width="5" stroke-miterlimit="10"/>
<path d="M787.397 1009.48C889.415 1213.58 1416.45 756.99 1505.71 505.289C1619.32 184.748 1013.08 230.95 1013.84 12.9568C1014.19 -76.1064 707.102 198.355 458.03 470.637C212.527 738.806 28.0293 1004.6 261.391 940.698C421.958 896.981 656.53 746.944 787.397 1009.48Z" stroke="white" stroke-opacity="0.04" stroke-width="5" stroke-miterlimit="10"/>
<path d="M241.506 961.84C411.235 914.771 656.526 752.908 790.367 1027.72C894.399 1241.37 1441.63 765.351 1533.45 504.105C1650.56 170.858 1018.13 224.572 1021.08 -4.61765C1023.49 -189.973 -254.867 1099.51 241.506 961.84Z" stroke="white" stroke-opacity="0.04" stroke-width="5" stroke-miterlimit="10"/>
</svg>
