<svg width="1617" height="551" viewBox="0 0 1617 551" fill="none" xmlns="http://www.w3.org/2000/svg">
<path d="M862.405 209.8C835.75 151.604 710.12 93.7798 637.991 97.4614C558.337 101.537 537.275 240.418 551.72 260.363C566.165 280.307 654.648 166.363 719.031 200.087C790.492 237.53 767.484 334.778 800.593 339.851C833.169 344.846 893.211 277.068 862.405 209.8Z" stroke="white" stroke-opacity="0.04" stroke-width="5" stroke-miterlimit="10"/>
<path d="M875.426 196.662C855.706 131.188 701.958 68.2641 620.7 75.7428C528.661 84.2322 525.07 239.702 533.333 264.871C540.438 286.563 647.805 182.235 727.118 216.613C813.291 253.948 807.058 345.109 829.489 343.52C853.539 341.799 898.473 273.47 875.426 196.662Z" stroke="white" stroke-opacity="0.04" stroke-width="5" stroke-miterlimit="10"/>
<path d="M888.438 183.519C875.735 110.884 693.816 42.7998 603.442 54.0295C498.92 66.974 513.428 237.871 514.936 269.375C516.104 292.292 640.845 198.19 735.261 233.134C835.959 270.413 847.342 357.692 858.25 347.155C874.544 341.229 903.605 270.097 888.438 183.519Z" stroke="white" stroke-opacity="0.04" stroke-width="5" stroke-miterlimit="10"/>
<path d="M901.524 170.397C895.618 90.5967 685.739 17.4022 586.205 32.3731C469.395 49.8835 486.207 234.556 496.582 273.941C503.089 298.612 633.891 214.263 743.363 249.698C858.568 286.997 887.28 369.194 887.074 350.856C895.239 339.424 908.606 266.679 901.524 170.397Z" stroke="white" stroke-opacity="0.04" stroke-width="5" stroke-miterlimit="10"/>
<path d="M914.486 157.238C915.307 70.2887 677.571 -7.99174 568.865 10.588C439.679 32.6598 473.834 230.56 478.146 278.383C480.586 305.224 626.803 230.248 751.401 266.158C881.115 303.461 921.503 380.98 915.837 354.439C912.225 337.442 913.496 263.261 914.486 157.238Z" stroke="white" stroke-opacity="0.04" stroke-width="5" stroke-miterlimit="10"/>
<path d="M927.507 144.115C934.956 49.9768 669.442 -33.3543 551.599 -11.1252C410.048 15.5587 483.753 232.159 459.654 282.882C447.207 309.176 619.669 246.341 759.429 282.669C903.564 320.167 962.318 393.157 944.549 358.063C933.592 336.248 918.321 259.849 927.507 144.115Z" stroke="white" stroke-opacity="0.04" stroke-width="5" stroke-miterlimit="10"/>
<path d="M940.514 130.978C954.586 29.6655 661.417 -58.6713 534.318 -32.8532C380.437 -1.51637 475 230.78 441.361 287.402C424.897 315.102 612.689 262.46 767.613 299.191C926.274 336.811 1003.17 404.831 973.455 361.723C954.809 334.684 923.107 256.433 940.514 130.978Z" stroke="white" stroke-opacity="0.04" stroke-width="5" stroke-miterlimit="10"/>
<path d="M953.541 117.835C974.174 9.33362 653.255 -83.9828 517.033 -54.5765C350.831 -18.6328 466.518 229.632 422.959 291.901C402.542 321.103 605.675 278.609 775.705 315.713C948.797 353.48 1043.71 416.293 1002.25 365.363C975.903 332.967 927.837 252.961 953.541 117.835Z" stroke="white" stroke-opacity="0.04" stroke-width="5" stroke-miterlimit="10"/>
<path d="M966.566 104.693C993.738 -11.0018 645.171 -109.354 499.746 -76.2984C321.216 -35.7172 458.127 228.654 404.533 296.396C380.168 327.182 598.593 294.759 783.778 332.216C971.34 370.157 1084.07 427.68 1031.05 369.004C996.885 331.161 932.533 249.53 966.566 104.693Z" stroke="white" stroke-opacity="0.04" stroke-width="5" stroke-miterlimit="10"/>
<path d="M979.562 91.5497C1013.21 -31.4356 637.089 -134.672 482.471 -98.0125C291.642 -52.8195 449.928 227.856 386.162 300.909C357.854 333.345 591.565 310.927 791.884 348.731C993.913 386.861 1124.38 439.091 1059.88 372.642C1017.8 329.327 937.186 246.063 979.562 91.5497Z" stroke="white" stroke-opacity="0.04" stroke-width="5" stroke-miterlimit="10"/>
<path d="M992.584 78.4096C1032.8 -51.7135 629.02 -160.022 465.181 -119.733C262.031 -69.8363 441.719 227.214 367.755 305.411C335.514 339.548 584.515 327.12 799.972 365.256C1016.49 403.579 1164.6 450.414 1088.67 376.285C1038.68 327.467 941.827 242.573 992.584 78.4096Z" stroke="white" stroke-opacity="0.04" stroke-width="5" stroke-miterlimit="10"/>
<path d="M1005.63 65.2737C1052.34 -72.0685 620.948 -185.276 447.91 -141.449C232.467 -86.8745 433.607 226.53 349.43 309.932C313.21 345.775 577.467 343.296 808.145 381.784C1039.12 420.311 1204.85 461.778 1117.55 379.946C1059.56 325.621 946.488 239.088 1005.63 65.2737Z" stroke="white" stroke-opacity="0.04" stroke-width="5" stroke-miterlimit="10"/>
<path d="M1018.62 52.1314C1071.85 -92.4451 612.781 -210.597 430.637 -163.162C202.88 -103.914 425.463 225.972 330.973 314.442C290.806 352.047 570.45 359.517 816.186 398.302C1061.92 437.086 1244.96 473.11 1146.35 383.596C1080.39 323.754 951.083 235.592 1018.62 52.1314Z" stroke="white" stroke-opacity="0.04" stroke-width="5" stroke-miterlimit="10"/>
<path d="M1031.65 38.9901C1091.35 -112.826 604.807 -235.878 413.352 -184.899C173.215 -120.977 417.247 225.456 312.571 318.927C268.429 358.321 563.422 375.713 824.279 414.81C1084.22 453.754 1285.06 484.453 1175.11 387.212C1101.22 321.878 955.705 232.096 1031.65 38.9901Z" stroke="white" stroke-opacity="0.04" stroke-width="5" stroke-miterlimit="10"/>
<path d="M1044.67 25.8476C1110.86 -133.208 596.919 -260.88 396.051 -206.576C143.945 -137.576 409.217 225.081 294.173 323.477C246.035 364.654 556.378 391.97 832.359 431.362C1106.78 470.531 1325.18 495.846 1203.91 390.903C1122.04 320 960.291 228.559 1044.67 25.8476Z" stroke="white" stroke-opacity="0.04" stroke-width="5" stroke-miterlimit="10"/>
<path d="M1057.68 12.7053C1130.36 -153.589 588.856 -286.196 378.827 -228.329C114.331 -154.707 401.264 224.629 275.832 327.946C223.711 370.941 549.411 408.149 840.558 447.848C1129.48 487.261 1365.37 507.163 1232.83 394.527C1142.87 318.128 964.908 225.047 1057.68 12.7053Z" stroke="white" stroke-opacity="0.04" stroke-width="5" stroke-miterlimit="10"/>
<path d="M1070.7 -0.43411C1149.86 -174.049 580.754 -311.535 361.508 -250.054C84.8718 -171.75 393.02 224.192 257.396 332.444C201.235 377.308 542.303 424.735 848.578 464.344C1151.95 504.363 1405.38 518.489 1261.53 398.151C1163.66 316.249 969.486 221.513 1070.7 -0.43411Z" stroke="white" stroke-opacity="0.04" stroke-width="5" stroke-miterlimit="10"/>
<path d="M1083.72 -13.5743C1168.88 -194.543 572.656 -336.874 344.214 -271.774C55.146 -188.858 384.899 223.814 238.981 336.96C178.852 383.581 535.285 440.87 856.662 480.867C1174.54 521.034 1445.44 529.822 1290.35 401.782C1184.45 314.368 973.498 217.777 1083.72 -13.5743Z" stroke="white" stroke-opacity="0.04" stroke-width="5" stroke-miterlimit="10"/>
<path d="M1096.74 -26.7137C1188.49 -214.897 564.595 -362.173 326.942 -293.489C25.5717 -205.945 376.817 223.462 220.592 341.468C156.456 389.918 528.326 457.038 864.771 497.382C1197.14 537.712 1485.54 541.183 1319.16 405.43C1205.18 312.423 978.224 214.293 1096.74 -26.7137Z" stroke="white" stroke-opacity="0.04" stroke-width="5" stroke-miterlimit="10"/>
<path d="M1109.75 -39.8569C1208.07 -235.259 556.501 -387.531 309.67 -315.208C-3.96582 -223.011 368.685 223.128 202.202 345.972C134.034 396.261 521.223 473.248 872.796 513.874C1219.68 554.29 1525.83 552.31 1347.9 409.06C1226.26 310.462 982.949 210.805 1109.75 -39.8569Z" stroke="white" stroke-opacity="0.04" stroke-width="5" stroke-miterlimit="10"/>
<path d="M1122.79 -52.9978C1227.74 -255.605 548.407 -412.922 292.389 -336.929C-33.6157 -240.105 360.566 222.796 183.888 350.493C111.684 402.637 514.316 489.343 881.039 530.433C1242.34 571.058 1565.8 563.767 1376.79 412.722C1246.94 308.648 987.575 207.326 1122.79 -52.9978Z" stroke="white" stroke-opacity="0.04" stroke-width="5" stroke-miterlimit="10"/>
<path d="M1405.59 416.353C1267.63 306.844 992.398 203.819 1135.79 -66.1385C1247.27 -275.99 540.344 -438.201 275.103 -358.66C-63.233 -257.183 352.438 222.468 165.418 354.984C14.1551 462.137 1809.05 736.6 1405.59 416.353Z" stroke="white" stroke-opacity="0.04" stroke-width="5" stroke-miterlimit="10"/>
</svg>
