<svg width="90" height="89" viewBox="0 0 90 89" fill="none" xmlns="http://www.w3.org/2000/svg">
<path d="M3.96406 47.8033V55.0427C3.96406 55.7667 4.14217 56.324 4.49839 56.7145C4.85462 57.1055 5.37746 57.3007 6.06692 57.3007C6.75639 57.3007 7.28498 57.1055 7.65269 56.7145C8.0204 56.324 8.20426 55.7667 8.20426 55.0427V47.8033H11.1517V55.0254C11.1517 56.1054 10.9219 57.0191 10.4623 57.766C10.0026 58.5129 9.3821 59.0762 8.6007 59.4551C7.8308 59.8344 6.96897 60.024 6.01521 60.024C5.06146 60.024 4.20537 59.84 3.44696 59.4724C2.70004 59.0931 2.10825 58.5302 1.67159 57.7833C1.23493 57.0247 1.0166 56.1054 1.0166 55.0254V47.8033H3.96406ZM26.9246 47.8033V59.9035H23.9771V52.6469L21.271 59.9035H18.8923L16.1689 52.6296V59.9035H13.2215V47.8033H16.7033L20.0989 56.1802L23.46 47.8033H26.9246ZM36.5765 57.766H32.0605L31.3366 59.9035H28.2512L32.6293 47.8033H36.0422L40.4205 59.9035H37.3004L36.5765 57.766ZM35.8181 55.4907L34.3185 51.061L32.8362 55.4907H35.8181ZM44.7003 47.8033V59.9035H41.7528V47.8033H44.7003ZM50.3337 53.8361C50.3337 52.6412 50.5925 51.5781 51.1096 50.6472C51.6267 49.705 52.3447 48.9753 53.2639 48.4582C54.1949 47.9299 55.2463 47.6655 56.4184 47.6655C57.8547 47.6655 59.0842 48.0448 60.1067 48.803C61.1297 49.5616 61.8131 50.5957 62.1579 51.9056H58.9175C58.6764 51.4001 58.3317 51.0152 57.8833 50.7508C57.4465 50.4865 56.9467 50.3543 56.3838 50.3543C55.4762 50.3543 54.7405 50.6705 54.1776 51.3025C53.6143 51.9345 53.333 52.7791 53.333 53.8361C53.333 54.8932 53.6143 55.7378 54.1776 56.3698C54.7405 57.0018 55.4762 57.318 56.3838 57.318C56.9467 57.318 57.4465 57.1858 57.8833 56.9215C58.3317 56.6571 58.6764 56.2722 58.9175 55.7667H62.1579C61.8131 57.0765 61.1297 58.1107 60.1067 58.8693C59.0842 59.6162 57.8547 59.9895 56.4184 59.9895C55.2463 59.9895 54.1949 59.7311 53.2639 59.214C52.3447 58.6853 51.6267 57.9556 51.1096 57.0247C50.5925 56.0942 50.3337 55.0311 50.3337 53.8361ZM70.1337 59.9035L67.6173 55.3356H66.9106V59.9035H63.9631V47.8033H68.9099C69.8637 47.8033 70.6737 47.9701 71.3403 48.3032C72.0181 48.6362 72.5239 49.0959 72.857 49.6821C73.1905 50.2566 73.3568 50.9003 73.3568 51.6127C73.3568 52.417 73.127 53.135 72.6674 53.767C72.2194 54.3991 71.5528 54.8474 70.6681 55.1118L73.4605 59.9035H70.1337ZM66.9106 53.2499H68.7375C69.2775 53.2499 69.6797 53.1178 69.9441 52.8538C70.2201 52.5894 70.3579 52.2157 70.3579 51.7332C70.3579 51.2736 70.2201 50.9116 69.9441 50.6472C69.6797 50.3832 69.2775 50.251 68.7375 50.251H66.9106V53.2499ZM88.9103 47.8033V59.9035H85.9628V52.6469L83.2568 59.9035H80.8783L78.1545 52.6296V59.9035H75.207V47.8033H78.6889L82.0848 56.1802L85.4457 47.8033H88.9103Z" fill="white"/>
<path d="M11.5957 72.0623C11.0974 72.0623 10.6517 71.9606 10.2588 71.7569C9.87277 71.5532 9.56749 71.2374 9.34293 70.8095C9.12537 70.3816 9.0166 69.834 9.0166 69.1674C9.0166 68.4727 9.1324 67.9078 9.36399 67.4727C9.59557 67.0376 9.90788 66.7181 10.3009 66.5144C10.7009 66.3111 11.1535 66.2095 11.6588 66.2095C11.9465 66.2095 12.2238 66.2408 12.4904 66.3039C12.7571 66.3601 12.9747 66.4305 13.1431 66.5144L12.8589 67.283C12.6905 67.22 12.4939 67.1601 12.2694 67.1043C12.0448 67.048 11.8343 67.0199 11.6378 67.0199C11.2588 67.0199 10.9465 67.1006 10.7009 67.2622C10.4553 67.4233 10.2728 67.6619 10.1535 67.9777C10.0342 68.2935 9.97454 68.6865 9.97454 69.157C9.97454 69.6058 10.0342 69.9883 10.1535 70.3041C10.2728 70.6199 10.4517 70.8585 10.6904 71.0201C10.929 71.1816 11.2272 71.2623 11.5851 71.2623C11.8939 71.2623 12.1641 71.2306 12.3957 71.1675C12.6343 71.1044 12.8518 71.0269 13.0484 70.9357V71.7569C12.8589 71.8554 12.6483 71.9289 12.4168 71.9779C12.1922 72.0342 11.9185 72.0623 11.5957 72.0623ZM15.2639 69.7568C15.2639 69.8199 15.2604 69.9111 15.2534 70.0305C15.2534 70.143 15.2499 70.2655 15.2429 70.3989C15.2358 70.5255 15.2288 70.648 15.2218 70.7673C15.2148 70.8798 15.2078 70.971 15.2008 71.041L18.222 66.3147H19.3589V71.957H18.4957V68.6306C18.4957 68.5181 18.4957 68.3707 18.4957 68.1883C18.5026 68.0059 18.5097 67.8271 18.5167 67.6515C18.5237 67.4691 18.5307 67.3321 18.5378 67.2409L15.5376 71.957H14.3902V66.3147H15.2639V69.7568ZM23.4177 72.0623C22.9195 72.0623 22.4739 71.9606 22.0808 71.7569C21.6949 71.5532 21.3896 71.2374 21.165 70.8095C20.9475 70.3816 20.8387 69.834 20.8387 69.1674C20.8387 68.4727 20.9545 67.9078 21.1861 67.4727C21.4176 67.0376 21.7299 66.7181 22.1229 66.5144C22.523 66.3111 22.9756 66.2095 23.4809 66.2095C23.7687 66.2095 24.0458 66.2408 24.3125 66.3039C24.5792 66.3601 24.7967 66.4305 24.9652 66.5144L24.6809 67.283C24.5125 67.22 24.316 67.1601 24.0914 67.1043C23.8669 67.048 23.6564 67.0199 23.4598 67.0199C23.0809 67.0199 22.7686 67.1006 22.523 67.2622C22.2773 67.4233 22.0949 67.6619 21.9756 67.9777C21.8563 68.2935 21.7966 68.6865 21.7966 69.157C21.7966 69.6058 21.8563 69.9883 21.9756 70.3041C22.0949 70.6199 22.2738 70.8585 22.5124 71.0201C22.751 71.1816 23.0493 71.2623 23.4072 71.2623C23.716 71.2623 23.9862 71.2306 24.2178 71.1675C24.4564 71.1044 24.674 71.0269 24.8704 70.9357V71.7569C24.6809 71.8554 24.4704 71.9289 24.2388 71.9779C24.0143 72.0342 23.7406 72.0623 23.4177 72.0623ZM30.1072 67.0934H28.265V71.957H27.3492V67.0934H25.528V66.3147H30.1072V67.0934ZM33.2949 66.2095C33.7791 66.2095 34.1932 66.3147 34.5371 66.5253C34.888 66.7358 35.1547 67.0339 35.3371 67.4201C35.5266 67.7989 35.6213 68.2445 35.6213 68.7568V69.3149H31.758C31.772 69.9533 31.9335 70.4411 32.2422 70.7778C32.558 71.1076 32.9967 71.2728 33.5581 71.2728C33.916 71.2728 34.2318 71.241 34.5055 71.178C34.7862 71.1076 35.0739 71.0096 35.3687 70.883V71.6939C35.081 71.82 34.7967 71.9112 34.516 71.9675C34.2353 72.0305 33.902 72.0623 33.516 72.0623C32.9826 72.0623 32.5089 71.9534 32.0949 71.736C31.6878 71.5183 31.3685 71.1956 31.1369 70.7673C30.9124 70.3322 30.8001 69.8026 30.8001 69.1779C30.8001 68.5603 30.9018 68.0304 31.1053 67.5884C31.3159 67.146 31.6071 66.8057 31.9791 66.5671C32.358 66.3288 32.7967 66.2095 33.2949 66.2095ZM33.2844 66.9672C32.8423 66.9672 32.4914 67.1111 32.2317 67.3988C31.9791 67.6796 31.8282 68.0726 31.7791 68.578H34.6529C34.6529 68.255 34.6037 67.9741 34.5055 67.7359C34.4073 67.4972 34.2563 67.3112 34.0528 67.1778C33.8563 67.0376 33.6002 66.9672 33.2844 66.9672ZM43.1105 66.3147V71.957H42.2788V68.3566C42.2788 68.2096 42.2825 68.0549 42.2897 67.8938C42.3038 67.7322 42.3178 67.5743 42.3315 67.4201H42.3001L40.458 71.957H39.6789L37.8894 67.4201H37.8578C37.8718 67.5743 37.8788 67.7322 37.8788 67.8938C37.8858 68.0549 37.8894 68.22 37.8894 68.3884V71.957H37.0578V66.3147H38.2894L40.0684 70.8517L41.8791 66.3147H43.1105ZM47.0488 66.2199C47.7363 66.2199 48.2454 66.3706 48.5752 66.6723C48.9047 66.9741 49.0698 67.455 49.0698 68.1147V71.957H48.396L48.2172 71.1571H48.175C48.0135 71.3604 47.8452 71.5323 47.6696 71.6726C47.5013 71.8059 47.3048 71.9044 47.0802 71.9675C46.8628 72.0305 46.596 72.0623 46.2802 72.0623C45.9435 72.0623 45.6382 72.0024 45.3646 71.8831C45.0978 71.7638 44.8872 71.5813 44.7329 71.3359C44.5783 71.0831 44.5011 70.7673 44.5011 70.3884C44.5011 69.8272 44.7221 69.3952 45.1645 69.0935C45.6064 68.7849 46.2871 68.6166 47.2067 68.5884L48.1646 68.5567V68.22C48.1646 67.7499 48.0625 67.4233 47.8592 67.2409C47.6555 67.0584 47.3679 66.9672 46.9962 66.9672C46.7013 66.9672 46.4205 67.013 46.1541 67.1043C45.8873 67.1882 45.6382 67.2867 45.4063 67.3988L45.1223 66.7041C45.3678 66.5707 45.6591 66.4586 45.9962 66.3674C46.3329 66.2689 46.6836 66.2199 47.0488 66.2199ZM47.3225 69.2305C46.6205 69.2586 46.1328 69.3707 45.8592 69.5672C45.5924 69.7637 45.459 70.0409 45.459 70.3989C45.459 70.7147 45.5538 70.9465 45.7434 71.0936C45.9399 71.241 46.189 71.315 46.4908 71.315C46.9681 71.315 47.3646 71.1848 47.6805 70.9252C47.9963 70.6584 48.1542 70.2514 48.1542 69.7042V69.1988L47.3225 69.2305ZM52.9812 66.3147H53.9708L55.1918 69.5254C55.2621 69.7147 55.3252 69.8971 55.3815 70.0726C55.4446 70.2482 55.5008 70.4202 55.5498 70.5885C55.5992 70.7501 55.6378 70.908 55.6655 71.0622H55.7077C55.7499 70.8867 55.8166 70.6584 55.9078 70.378C55.999 70.0903 56.0938 69.8026 56.1919 69.5146L57.3394 66.3147H58.3394L55.9078 72.7361C55.7744 73.0868 55.6165 73.3922 55.4341 73.6518C55.2585 73.9185 55.0412 74.1218 54.7816 74.2625C54.5289 74.4095 54.2199 74.4834 53.8551 74.4834C53.6867 74.4834 53.5393 74.473 53.4131 74.4517C53.2866 74.4376 53.1781 74.4204 53.0865 74.3991V73.6622C53.164 73.6763 53.2552 73.6903 53.3605 73.7044C53.4726 73.7184 53.5883 73.7253 53.7076 73.7253C53.9254 73.7253 54.1114 73.6835 54.2657 73.5991C54.4272 73.522 54.5638 73.4063 54.6763 73.2516C54.7884 73.1045 54.8833 72.9289 54.9604 72.7252L55.2553 71.9779L52.9812 66.3147ZM60.0426 68.3675C60.0426 68.6973 60.1338 68.9428 60.3162 69.1043C60.5055 69.2586 60.7759 69.3358 61.1266 69.3358C61.4774 69.3358 61.7968 69.2831 62.0845 69.1779C62.3722 69.0658 62.6671 68.9183 62.9688 68.7359V66.3147H63.8953V71.957H62.9688V69.441C62.653 69.6447 62.3408 69.8059 62.0318 69.9252C61.7301 70.0377 61.3653 70.0935 60.9374 70.0935C60.3616 70.0935 59.9124 69.9429 59.5898 69.6411C59.274 69.3394 59.1161 68.9356 59.1161 68.4305V66.3147H60.0426V68.3675ZM67.867 66.2095C68.3511 66.2095 68.765 66.3147 69.1089 66.5253C69.4597 66.7358 69.7264 67.0339 69.9088 67.4201C70.0985 67.7989 70.1933 68.2445 70.1933 68.7568V69.3149H66.3297C66.3438 69.9533 66.5053 70.4411 66.8143 70.7778C67.1301 71.1076 67.5684 71.2728 68.1301 71.2728C68.4877 71.2728 68.8035 71.241 69.0776 71.178C69.358 71.1076 69.6457 71.0096 69.9406 70.883V71.6939C69.6529 71.82 69.3685 71.9112 69.088 71.9675C68.8072 72.0305 68.4737 72.0623 68.088 72.0623C67.5544 72.0623 67.0807 71.9534 66.6668 71.736C66.2598 71.5183 65.9404 71.1956 65.709 70.7673C65.4844 70.3322 65.3719 69.8026 65.3719 69.1779C65.3719 68.5603 65.4735 68.0304 65.6772 67.5884C65.8878 67.146 66.1791 66.8057 66.5511 66.5671C66.93 66.3288 67.3684 66.2095 67.867 66.2095ZM67.8561 66.9672C67.4142 66.9672 67.0634 67.1111 66.8035 67.3988C66.5511 67.6796 66.4001 68.0726 66.351 68.578H69.2246C69.2246 68.255 69.1756 67.9741 69.0776 67.7359C68.9791 67.4972 68.828 67.3112 68.6247 67.1778C68.4283 67.0376 68.1719 66.9672 67.8561 66.9672ZM75.5246 67.0934H73.6824V71.957H72.7664V67.0934H70.9455V66.3147H75.5246V67.0934ZM78.7731 66.2199C79.4605 66.2199 79.9696 66.3706 80.2994 66.6723C80.6293 66.9741 80.794 67.455 80.794 68.1147V71.957H80.1202L79.9414 71.1571H79.8993C79.7377 71.3604 79.5694 71.5323 79.3942 71.6726C79.2255 71.8059 79.029 71.9044 78.8044 71.9675C78.587 72.0305 78.3202 72.0623 78.0044 72.0623C77.6677 72.0623 77.3624 72.0024 77.0888 71.8831C76.822 71.7638 76.6114 71.5813 76.4572 71.3359C76.3025 71.0831 76.2253 70.7673 76.2253 70.3884C76.2253 69.8272 76.4467 69.3952 76.8887 69.0935C77.3306 68.7849 78.0117 68.6166 78.931 68.5884L79.8888 68.5567V68.22C79.8888 67.7499 79.7872 67.4233 79.5835 67.2409C79.3802 67.0584 79.0921 66.9672 78.7204 66.9672C78.4255 66.9672 78.1447 67.013 77.8783 67.1043C77.6115 67.1882 77.3624 67.2867 77.131 67.3988L76.8465 66.7041C77.092 66.5707 77.3833 66.4586 77.7204 66.3674C78.0571 66.2689 78.4078 66.2199 78.7731 66.2199ZM79.0467 69.2305C78.3447 69.2586 77.857 69.3707 77.5834 69.5672C77.3166 69.7637 77.1836 70.0409 77.1836 70.3989C77.1836 70.7147 77.278 70.9465 77.4676 71.0936C77.6641 71.241 77.9132 71.315 78.215 71.315C78.6923 71.315 79.0889 71.1848 79.4047 70.9252C79.7205 70.6584 79.8784 70.2514 79.8784 69.7042V69.1988L79.0467 69.2305Z" fill="white"/>
<path fill-rule="evenodd" clip-rule="evenodd" d="M51.8914 2.14282H61.4728V25.1533C61.4728 28.5948 60.7259 31.5055 59.2317 33.8853C58.2107 35.5111 56.9459 36.8635 55.4368 37.9425C54.9334 35.9038 53.3174 34.2773 51.2538 33.784C52.4579 33.0715 52.7087 32.058 52.7087 30.7736C54.0884 30.5377 53.9329 28.4606 52.513 28.4606H51.6801C49.854 25.7163 48.8451 20.1673 49.9942 17.0415C50.6567 16.9411 50.9826 16.1584 50.5712 15.6166C50.8371 15.4412 51.0127 15.1652 51.0477 14.8541L51.7102 8.62736C51.7452 8.26623 51.5845 7.96509 51.1529 7.96015L49.3871 7.93002C49.1211 7.93002 48.9001 8.10049 48.835 8.34141L48.2581 10.9153C48.0576 11.8085 46.5621 11.6278 46.5621 10.9755V8.43671C46.5621 8.14079 46.2913 7.93002 46.0004 7.93002H44.2691C43.9783 7.93002 43.7074 8.14079 43.7074 8.43671V10.9755C43.7074 11.6278 42.212 11.8085 42.0115 10.9153L41.4345 8.34141C41.3695 8.10049 41.1485 7.93002 40.8825 7.93002L39.1215 7.96015C38.685 7.96509 38.5245 8.26599 38.5596 8.62736L38.5605 8.62675L39.2228 14.8535C39.2579 15.1646 39.4336 15.4403 39.6994 15.616C39.2878 16.1578 39.614 16.9406 40.2762 17.0409C40.512 17.678 40.6675 18.4858 40.7278 19.4191C40.9034 22.229 40.1508 26.1476 38.5954 28.4606H37.7574C36.3627 28.4606 36.1519 30.5327 37.5618 30.7736C37.5618 32.058 37.8126 33.0715 39.0167 33.784C36.8039 34.3133 35.1304 36.1327 34.7508 38.3408C33.0962 37.2102 31.7311 35.7434 30.6556 33.9402C29.2361 31.5238 28.5264 28.5948 28.5264 25.1533V2.14282H38.1077H51.8914Z" fill="white"/>
</svg>
